<svg width="512" height="512" viewBox="0 0 512 512" fill="none" xmlns="http://www.w3.org/2000/svg">
<path d="M225.782 22.0822C244.434 11.306 267.414 11.3059 286.066 22.0821L443.706 113.159C462.358 123.935 473.848 143.85 473.848 165.402V347.555C473.848 369.108 462.358 389.023 443.706 399.799L286.066 490.876C267.414 501.652 244.434 501.652 225.782 490.876L68.1421 399.799C49.4901 389.023 38 369.108 38 347.555V165.402C38 143.85 49.4901 123.935 68.1421 113.159L225.782 22.0822Z" fill="url(#paint0_linear_501_172)"/>
<path d="M225.782 22.0822C244.434 11.306 267.414 11.3059 286.066 22.0821L443.706 113.159C462.358 123.935 473.848 143.85 473.848 165.402V347.555C473.848 369.108 462.358 389.023 443.706 399.799L286.066 490.876C267.414 501.652 244.434 501.652 225.782 490.876L68.1421 399.799C49.4901 389.023 38 369.108 38 347.555V165.402C38 143.85 49.4901 123.935 68.1421 113.159L225.782 22.0822Z" fill="url(#paint1_radial_501_172)"/>
<path d="M225.782 22.0822C244.434 11.306 267.414 11.3059 286.066 22.0821L443.706 113.159C462.358 123.935 473.848 143.85 473.848 165.402V347.555C473.848 369.108 462.358 389.023 443.706 399.799L286.066 490.876C267.414 501.652 244.434 501.652 225.782 490.876L68.1421 399.799C49.4901 389.023 38 369.108 38 347.555V165.402C38 143.85 49.4901 123.935 68.1421 113.159L225.782 22.0822Z" fill="url(#paint2_radial_501_172)"/>
<path d="M225.782 22.0822C244.434 11.306 267.414 11.3059 286.066 22.0821L443.706 113.159C462.358 123.935 473.848 143.85 473.848 165.402V347.555C473.848 369.108 462.358 389.023 443.706 399.799L286.066 490.876C267.414 501.652 244.434 501.652 225.782 490.876L68.1421 399.799C49.4901 389.023 38 369.108 38 347.555V165.402C38 143.85 49.4901 123.935 68.1421 113.159L225.782 22.0822Z" fill="url(#paint3_radial_501_172)"/>
<path d="M129.779 185.425L299.767 87.4996V165.826L129.779 263.122V185.425Z" fill="url(#paint4_linear_501_172)" fill-opacity="0.55"/>
<path d="M129.779 301.741L299.767 204.735V279.673L129.779 377.599V301.741Z" fill="url(#paint5_linear_501_172)" fill-opacity="0.35"/>
<path d="M129.864 305.596L129.779 377.6L96.241 358.328V165.657L129.779 185.426L129.864 263.123L197.315 224.505L231.313 244.274L153.21 288.409L246.014 444.723L204.5 420.875L204.456 420.799L192.576 413.935L129.864 305.596Z" fill="white"/>
<path d="M96.241 165.656L266.229 68.1903L299.767 87.4996L129.779 185.425L96.241 165.656Z" fill="url(#paint6_linear_501_172)"/>
<path d="M197.315 224.503L367.303 127.037L400.841 146.347L231.312 244.272L197.315 224.503Z" fill="url(#paint7_linear_501_172)"/>
<path opacity="0.65" d="M246.014 444.722L153.21 288.409L323.657 190.943L415.543 346.337L246.014 444.722Z" fill="url(#paint8_linear_501_172)"/>
<defs>
<linearGradient id="paint0_linear_501_172" x1="255.924" y1="14" x2="255.924" y2="498.958" gradientUnits="userSpaceOnUse">
<stop stop-color="#1FD1FF"/>
<stop offset="1" stop-color="#1BB8FF"/>
</linearGradient>
<radialGradient id="paint1_radial_501_172" cx="0" cy="0" r="1" gradientUnits="userSpaceOnUse" gradientTransform="translate(58.8193 480.583) rotate(-48.2075) scale(739.604 745.979)">
<stop stop-color="#232DE3"/>
<stop offset="1" stop-color="#232DE3" stop-opacity="0"/>
</radialGradient>
<radialGradient id="paint2_radial_501_172" cx="0" cy="0" r="1" gradientUnits="userSpaceOnUse" gradientTransform="translate(450.373 496.189) rotate(-135.4) scale(459.342 705.409)">
<stop stop-color="#8B4DFF"/>
<stop offset="1" stop-color="#8B4DFF" stop-opacity="0"/>
</radialGradient>
<radialGradient id="paint3_radial_501_172" cx="0" cy="0" r="1" gradientUnits="userSpaceOnUse" gradientTransform="translate(252.293 17.5967) rotate(90) scale(382.348 833.739)">
<stop stop-color="#24D5FF"/>
<stop offset="1" stop-color="#1BB8FF" stop-opacity="0"/>
</radialGradient>
<linearGradient id="paint4_linear_501_172" x1="130.238" y1="216.688" x2="275.652" y2="156.962" gradientUnits="userSpaceOnUse">
<stop stop-color="white" stop-opacity="0.74"/>
<stop offset="1" stop-color="white" stop-opacity="0"/>
</linearGradient>
<linearGradient id="paint5_linear_501_172" x1="130.238" y1="331.894" x2="274.98" y2="271.495" gradientUnits="userSpaceOnUse">
<stop stop-color="white" stop-opacity="0.74"/>
<stop offset="1" stop-color="white" stop-opacity="0"/>
</linearGradient>
<linearGradient id="paint6_linear_501_172" x1="131.528" y1="159.302" x2="220.769" y2="65.251" gradientUnits="userSpaceOnUse">
<stop stop-color="white" stop-opacity="0.74"/>
<stop offset="1" stop-color="white" stop-opacity="0"/>
</linearGradient>
<linearGradient id="paint7_linear_501_172" x1="232.602" y1="218.149" x2="321.842" y2="124.098" gradientUnits="userSpaceOnUse">
<stop stop-color="white" stop-opacity="0.74"/>
<stop offset="1" stop-color="white" stop-opacity="0"/>
</linearGradient>
<linearGradient id="paint8_linear_501_172" x1="198.693" y1="388.174" x2="372.884" y2="278.863" gradientUnits="userSpaceOnUse">
<stop stop-color="white"/>
<stop offset="1" stop-color="white" stop-opacity="0"/>
</linearGradient>
</defs>
</svg>
